<?xml version="1.0" encoding="UTF-8"?>
<svg id="Layer_1" data-name="Layer 1" xmlns="http://www.w3.org/2000/svg" viewBox="0 0 1115.88 1115.88">
  <defs>
    <style>
      .cls-1 {
        fill: #fff;
      }

      .cls-2 {
        fill: #fe9801;
      }
    </style>
  </defs>
  <rect class="cls-2" width="1115.88" height="1115.88"/>
  <g>
    <path class="cls-1" d="M469.03,619.41l-33.65-88.61h19.87l18.03,51.52c3.09,8.65,4.97,15.65,5.61,20.99h.64c.48-3.85,2.35-10.84,5.61-20.99l18.03-51.52h20.03l-33.81,88.61h-20.35Z"/>
    <path class="cls-1" d="M535.52,507.33c0-3.36.92-5.96,2.76-7.77,1.84-1.81,4.47-2.72,7.89-2.72s5.89.91,7.73,2.72c1.84,1.81,2.76,4.41,2.76,7.77s-.92,5.73-2.76,7.57c-1.84,1.84-4.42,2.76-7.73,2.76s-6.05-.92-7.89-2.76c-1.84-1.84-2.76-4.37-2.76-7.57ZM555.47,619.41h-18.83v-88.61h18.83v88.61Z"/>
    <path class="cls-1" d="M601.22,619.41h-18.83v-124.66h18.83v124.66Z"/>
    <path class="cls-1" d="M646.97,619.41h-18.83v-124.66h18.83v124.66Z"/>
    <path class="cls-1" d="M729.33,619.41l-3.77-12.34h-.64c-4.28,5.4-8.57,9.07-12.9,11.02-4.33,1.95-9.89,2.92-16.66,2.92-8.71,0-15.5-2.35-20.39-7.05-4.89-4.7-7.33-11.35-7.33-19.95,0-9.13,3.39-16.02,10.17-20.67,6.78-4.65,17.11-7.18,31.01-7.61l15.3-.48v-4.73c0-5.66-1.32-9.89-3.97-12.7-2.64-2.8-6.75-4.21-12.3-4.21-4.54,0-8.89.67-13.06,2-4.17,1.33-8.17,2.91-12.02,4.73l-6.09-13.46c4.81-2.51,10.06-4.42,15.78-5.73,5.71-1.31,11.1-1.96,16.18-1.96,11.26,0,19.77,2.46,25.52,7.37,5.74,4.92,8.61,12.63,8.61,23.15v59.69h-13.46ZM701.28,606.59c6.83,0,12.32-1.91,16.46-5.73,4.13-3.82,6.21-9.17,6.21-16.06v-7.69l-11.38.48c-8.87.32-15.32,1.8-19.35,4.45-4.04,2.64-6.05,6.69-6.05,12.14,0,3.95,1.17,7.01,3.53,9.17,2.35,2.16,5.87,3.24,10.58,3.24Z"/>
    <path class="cls-1" d="M843.73,619.41h-18.91v-54.64c0-6.78-1.28-11.85-3.85-15.18-2.56-3.34-6.57-5.01-12.02-5.01-7.27,0-12.59,2.36-15.98,7.09-3.4,4.73-5.09,12.59-5.09,23.59v44.14h-18.83v-88.61h14.74l2.64,11.62h.96c2.45-4.22,6.02-7.48,10.7-9.77,4.67-2.3,9.81-3.45,15.42-3.45,13.62,0,22.64,4.65,27.08,13.94h1.28c2.61-4.38,6.3-7.8,11.06-10.25,4.75-2.46,10.2-3.69,16.34-3.69,10.58,0,18.27,2.67,23.11,8.01,4.83,5.34,7.25,13.49,7.25,24.44v57.76h-18.83v-54.64c0-6.78-1.3-11.85-3.89-15.18-2.6-3.34-6.61-5.01-12.06-5.01-7.32,0-12.67,2.28-16.06,6.85-3.4,4.57-5.09,11.58-5.09,21.03v46.95Z"/>
  </g>
  <g>
    <path class="cls-1" d="M363.12,499.3c-12.25,7.85-19.66,20.39-21.41,33.77-.55,4.2,4.9,6.39,7.51,3.06l27.13-34.58c2.68-3.42-.91-8.07-4.95-6.48-2.84,1.11-5.61,2.52-8.27,4.23Z"/>
    <path class="cls-1" d="M392.37,544.58c-12.25,7.85-26.74,9.35-39.63,5.34-4.04-1.26-3.76-7.12.36-8.1l42.75-10.2c4.23-1.01,6.95,4.19,3.82,7.2-2.2,2.11-4.63,4.04-7.3,5.75Z"/>
    <path class="cls-1" d="M236.46,595.27c-6.94,6.89-13.14,12.88-18.59,17.98-3.49,3.27-.15,8.98,4.41,7.54,9.73-3.08,20.38-6.14,31.91-9.21,20.45-5.44,35.79-9.12,46.03-11l46.4-9.34c2.35-.47,3.97-2.71,3.57-5.08-2.09-12.54-6.43-24.92-13.16-36.58-6.9-11.95-15.72-22.09-25.83-30.27-1.85-1.5-4.58-1.21-6.15.58l-31.95,36.17c-9.06,10.89-21.26,23.96-36.65,39.21Z"/>
  </g>
</svg>