<?xml version="1.0" encoding="UTF-8"?>
<svg id="Layer_1" data-name="Layer 1" xmlns="http://www.w3.org/2000/svg" viewBox="0 0 1000 1000">
  <defs>
    <style>
      .cls-1 { fill: #fff; }
      .cls-2 { fill: #fe9801; }
    </style>
  </defs>
  <rect class="cls-2" x="-61.65" y="-51.71" width="1115.88" height="1115.88"/>
  <g>
    <path class="cls-1" d="M277.59,787.63l-39.89-105.05h23.55l21.37,61.07c3.67,10.26,5.89,18.55,6.65,24.88h.76c.57-4.56,2.78-12.86,6.65-24.88l21.37-61.07h23.74l-40.08,105.05h-24.12Z"/>
    <path class="cls-1" d="M356.43,654.75c0-3.99,1.09-7.06,3.28-9.21,2.18-2.15,5.3-3.23,9.36-3.23s6.98,1.08,9.17,3.23c2.18,2.15,3.28,5.22,3.28,9.21s-1.09,6.79-3.28,8.98c-2.18,2.18-5.24,3.28-9.17,3.28s-7.17-1.09-9.36-3.28c-2.18-2.18-3.28-5.18-3.28-8.98ZM380.08,787.63h-22.32v-105.05h22.32v105.05Z"/>
    <path class="cls-1" d="M434.31,787.63h-22.32v-147.79h22.32v147.79Z"/>
    <path class="cls-1" d="M488.54,787.63h-22.32v-147.79h22.32v147.79Z"/>
    <path class="cls-1" d="M586.18,787.63l-4.46-14.63h-.76c-5.07,6.4-10.16,10.75-15.29,13.06s-11.72,3.47-19.76,3.47c-10.32,0-18.38-2.79-24.17-8.36-5.79-5.57-8.69-13.45-8.69-23.65,0-10.83,4.02-19,12.06-24.5,8.04-5.51,20.29-8.51,36.76-9.02l18.14-.57v-5.6c0-6.71-1.57-11.73-4.7-15.05-3.13-3.32-8-4.99-14.58-4.99-5.39,0-10.54.79-15.48,2.37-4.94,1.58-9.69,3.45-14.25,5.6l-7.22-15.96c5.7-2.98,11.93-5.24,18.71-6.79,6.77-1.55,13.16-2.33,19.19-2.33,13.35,0,23.44,2.91,30.25,8.74,6.8,5.83,10.21,14.97,10.21,27.45v70.76h-15.96ZM552.94,772.43c8.1,0,14.61-2.27,19.52-6.79,4.9-4.53,7.36-10.88,7.36-19.04v-9.12l-13.49.57c-10.51.38-18.16,2.14-22.94,5.27-4.79,3.13-7.17,7.93-7.17,14.39,0,4.69,1.39,8.31,4.18,10.88,2.78,2.56,6.96,3.85,12.54,3.85Z"/>
    <path class="cls-1" d="M721.81,787.63h-22.42v-64.78c0-8.04-1.52-14.04-4.56-18s-7.79-5.94-14.25-5.94c-8.61,0-14.93,2.8-18.95,8.41-4.03,5.6-6.03,14.93-6.03,27.97v52.33h-22.32v-105.05h17.48l3.13,13.77h1.14c2.91-5,7.13-8.87,12.68-11.59,5.54-2.72,11.64-4.08,18.28-4.08,16.15,0,26.84,5.51,32.1,16.53h1.52c3.1-5.19,7.47-9.25,13.11-12.16,5.63-2.91,12.09-4.37,19.38-4.37,12.54,0,21.66,3.17,27.4,9.5,5.73,6.33,8.6,15.99,8.6,28.97v68.48h-22.32v-64.78c0-8.04-1.54-14.04-4.61-18-3.08-3.96-7.84-5.94-14.29-5.94-8.68,0-15.03,2.71-19.04,8.12-4.03,5.41-6.03,13.72-6.03,24.93v55.66Z"/>
  </g>
  <g>
    <path class="cls-1" d="M675.1,224.03c-36.52,23.4-58.63,60.8-63.84,100.69-1.63,12.51,14.6,19.05,22.39,9.12l80.88-103.09c7.99-10.19-2.7-24.05-14.76-19.32-8.46,3.32-16.73,7.51-24.67,12.6Z"/>
    <path class="cls-1" d="M762.32,359.05c-36.52,23.4-79.74,27.87-118.15,15.93-12.05-3.74-11.21-21.22,1.07-24.15l127.45-30.42c12.6-3.01,20.72,12.5,11.39,21.48-6.55,6.3-13.81,12.06-21.76,17.15Z"/>
    <path class="cls-1" d="M297.44,510.18c-20.71,20.53-39.18,38.39-55.41,53.61-10.4,9.75-.45,26.77,13.14,22.48,29.03-9.17,60.75-18.32,95.15-27.46,60.98-16.21,106.71-27.21,137.25-32.81l138.35-27.83c7-1.41,11.83-8.09,10.66-15.14-6.25-37.38-19.16-74.3-39.23-109.06-20.56-35.62-46.86-65.85-77.03-90.27-5.52-4.46-13.65-3.6-18.35,1.72l-95.26,107.85c-27,32.47-63.4,71.43-109.27,116.91Z"/>
  </g>
</svg>
